<svg xmlns="http://www.w3.org/2000/svg" viewBox="0 0 400 399.55257271">
  <defs/>
  <g fill-rule="evenodd">
    <path fill="#454244" d="M187.413 10.399c-7.326.565-25.184 3.214-28.162 4.178-.885.286-3.677 1.004-6.204 1.596-5.153 1.207-17.44 5.142-19.575 6.269-.766.404-1.539.735-1.718.735-.523 0-6.859 2.534-7.079 2.831-.11.149-1.818.938-3.796 1.754-1.978.816-3.809 1.658-4.068 1.872-.26.213-1.968 1.119-3.796 2.013-1.829.893-3.415 1.754-3.524 1.912-.11.159-1.369.903-2.798 1.654-1.428.752-3.406 1.886-4.395 2.522-9.606 6.172-13.741 9.112-20.507 14.581-11.69 9.449-24.418 22.8-32.64 34.24-3.444 4.791-6.793 9.78-6.793 10.117 0 .203-.421.877-.936 1.498-.514.621-1.627 2.388-2.474 3.927-.846 1.538-1.656 2.887-1.799 2.997-.813.624-9.034 17.585-10.164 20.972-.366 1.095-.806 2.084-.979 2.198-.172.113-.979 2.185-1.792 4.602-.813 2.418-1.72 4.935-2.016 5.595-.295.659-1.02 2.997-1.61 5.194-.589 2.198-1.402 5.075-1.806 6.394-1.261 4.118-3.133 13.644-4.633 23.576-2.092 13.851-2.076 36.437.035 49.351 1.41 8.627 3.327 18.037 4.396 21.578.498 1.649 1.389 4.796 1.981 6.993.591 2.198 1.318 4.536 1.615 5.195.298.66 1.202 3.177 2.011 5.595.809 2.417 1.612 4.575 1.785 4.795.172.22 1.066 2.333 1.986 4.695.92 2.363 1.839 4.296 2.042 4.296.203 0 .382.315.398.699.015.385.69 1.993 1.498 3.575.809 1.582 2.254 4.414 3.211 6.294.957 1.88 1.889 3.418 2.071 3.418.182 0 .455.404.608.899.296.961 2.444 4.648 4.88 8.375 2.599 3.979 5.441 8.09 5.965 8.629.278.287 1.156 1.501 1.95 2.698.795 1.197 1.58 2.176 1.744 2.176.165 0 .462.35.661.778.365.788 1.186 1.793 6.514 7.978 7.555 8.768 17.76 18.196 28.061 25.923 5.012 3.761 8.937 6.48 9.352 6.48.256 0 .808.379 1.227.842.419.463 1.436 1.186 2.26 1.606.824.421 2.713 1.536 4.196 2.477 1.483.942 3.461 2.044 4.395 2.45.934.406 1.698.862 1.698 1.014 0 .152 1.484.962 3.297 1.8 1.813.839 3.566 1.743 3.896 2.009.33.267 1.858.975 3.397 1.573 1.538.599 3.358 1.412 4.044 1.807.687.395 3.114 1.395 5.395 2.223 2.281.827 4.341 1.652 4.578 1.833.237.182 2.575.982 5.195 1.778s5.303 1.679 5.963 1.961c1.194.512 3.509 1.121 9.851 2.594 1.834.426 4.414 1.044 5.733 1.372 3.169.79 12.006 2.087 17.982 2.638 2.637.244 5.889.612 7.226.818 3.16.486 22.761.485 25.908-.002 1.337-.207 4.678-.582 7.425-.832 12.721-1.16 23.353-3.435 38.89-8.32 2.819-.886 5.336-1.776 5.595-1.978.259-.201 1.909-.863 3.667-1.471 1.759-.608 4.456-1.696 5.994-2.418 1.539-.723 3.786-1.72 4.995-2.217 1.209-.497 2.468-1.115 2.797-1.374.33-.258 2.083-1.155 3.897-1.994 1.813-.838 3.296-1.638 3.296-1.777 0-.14 1.055-.738 2.343-1.329 1.289-.592 3.23-1.685 4.313-2.431 1.083-.745 2.707-1.731 3.609-2.191.902-.46 1.883-1.074 2.181-1.365.298-.29 1.53-1.154 2.739-1.92 3.131-1.983 5.923-3.977 7.569-5.403.782-.678 1.692-1.335 2.022-1.461 1.438-.548 11.552-9.45 17.82-15.686 10.023-9.97 15.66-16.765 23.032-27.761 1.7-2.535 3.408-5.058 3.796-5.607 1.856-2.623 6.633-11.187 8.916-15.985.888-1.868 2.043-4.206 2.565-5.195.522-.989 1.4-2.998 1.951-4.464.55-1.467 1.264-3.085 1.584-3.597.321-.512 1.168-2.728 1.882-4.926s1.435-4.176 1.603-4.396c.168-.22.865-2.377 1.548-4.795s1.599-5.474 2.035-6.793c.436-1.319 1.502-5.545 2.37-9.391.867-3.846 1.764-7.712 1.995-8.591 2.754-10.515 2.889-43.742.239-59.141-2.23-12.964-5.962-28.235-8.007-32.767-.298-.66-1.117-2.907-1.82-4.995-.703-2.088-1.519-4.246-1.815-4.795-.295-.55-1.161-2.542-1.925-4.428-5.422-13.39-17.234-32.636-27.611-44.987-5.349-6.368-6.483-7.618-11.177-12.327-5.149-5.166-9.683-9.279-14.786-13.415-6.87-5.568-8.295-6.578-20.628-14.626-1.072-.7-3.073-1.869-4.446-2.598-1.374-.729-2.59-1.446-2.702-1.593-.112-.147-1.64-.965-3.396-1.817-1.756-.853-3.643-1.843-4.192-2.202-.55-.359-2.437-1.22-4.194-1.914-1.757-.694-3.286-1.4-3.397-1.569-.111-.168-1.955-.96-4.097-1.759-2.143-.8-4.211-1.643-4.596-1.875-1.412-.851-11.666-4.096-17.882-5.659-3.517-.885-6.753-1.755-7.193-1.935-2.44-.996-19.971-3.615-29.371-4.388-5.225-.43-19.502-.419-25.174.018m23.776 5.994c85.212 5.645 154.041 67.652 168.22 151.547 1.593 9.425 2.628 21.87 1.818 21.87-.215 0-7.738-3.137-16.719-6.971-28.062-11.982-38.223-15.569-53.32-18.824l-5.096-1.098-.415-1.638c-14.672-57.853-94.046-66.127-120.5-12.561l-1.908 3.862-4.222.24c-55.711 3.163-92.653 12.055-159.622 38.419-2.884 1.136 2.536-32.483 7.97-49.433 9.754-30.428 32.353-64.565 54.323-82.057 40.354-32.127 83.064-46.43 129.471-43.356m39.215 118.705c29.77 4.14 44.994 38.258 28.28 63.377-15.251 22.921-48.974 24.341-66.041 2.781-22.875-28.896 1.288-71.231 37.761-66.158m-8.846 9.598c-23.575 2.399-35.968 28.991-22.651 48.602 13.082 19.264 42.591 17.582 53.36-3.042 11.505-22.032-6.045-48.069-30.709-45.56m9.038 2.532c23.144 4.905 31.018 33.733 13.61 49.831-15.357 14.2-40.746 7.601-47.052-12.23-6.8-21.388 11.715-42.207 33.442-37.601m-64.599 58.666c21.26 42.593 83.121 47.238 109.308 8.209 2.33-3.473 1.636-3.39 10.922-1.303 20.742 4.661 44.625 12.153 69.182 21.702 2.474.962 2.456.897 1.427 5.358-10.354 44.895-40.931 86.698-81.931 112.014-17.009 10.503-42.384 20.406-59.341 23.159-.879.143-2.875.51-4.435.816-17.764 3.485-45.151 3.292-64.296-.453-70.262-13.744-123.62-63.27-142.68-132.435-2.09-7.583-3.036-6.345 8.015-10.494 46.086-17.305 94.256-27.882 137.862-30.272 4.615-.253 8.661-.515 8.991-.582.33-.067 1.529-.143 2.666-.168l2.067-.046 2.243 4.495"/>
    <path fill="#eb4333" d="M188.611 16.425c-35.366 2.313-68.922 14.722-97.402 36.02-4.307 3.221-4.611 3.61-1.306 1.673 25.061-14.688 52.861-9.683 59.191 10.657 8.913 28.638-25.098 66.191-60.183 66.449-29.432.218-41.134-27.49-23.009-54.478 3.17-4.721 2.53-4.288-2.821 1.906-26.169 30.291-41.892 68.747-44.127 107.925-.272 4.758-.252 4.947.471 4.662 66.969-26.364 103.911-35.256 159.622-38.419l4.222-.24 1.908-3.862c26.454-53.566 105.828-45.292 120.5 12.561l.415 1.638 5.096 1.098c15.097 3.255 25.258 6.842 53.32 18.824 8.981 3.834 16.504 6.971 16.719 6.971.54 0 .492-1.984-.233-9.615-9.237-97.252-94.867-170.146-192.383-163.77"/>
    <path fill="#a39b9b" d="M243.664 134.955c.718.089 1.797.087 2.397-.004.601-.091.013-.164-1.306-.162-1.318.002-1.81.077-1.091.166m-19.707 20.589l-1.579 1.699 1.698-1.58c1.579-1.469 1.882-1.817 1.58-1.817-.066 0-.83.764-1.699 1.698m49.479 20.28c0 .989.077 1.394.173.899.095-.494.095-1.303 0-1.798-.096-.494-.173-.09-.173.899m-60.356 0c0 .769.082 1.084.182.699.101-.384.101-1.014 0-1.398-.1-.385-.182-.07-.182.699m51.63 20.48l-1.174 1.298 1.299-1.173c.714-.646 1.299-1.23 1.299-1.299 0-.309-.33-.037-1.424 1.174M75.325 218.76c-13.778 3.766-47.373 15.062-51.73 17.394-.73.391-.701.625.793 6.351 19.508 74.769 85.31 129.585 162.225 135.141 12.232.884 31.539.117 41.455-1.646 2.585-.46 5.598-.994 6.697-1.187 39.96-7.02 80.452-31.434 106.684-64.323 6.091-7.637 14.249-19.629 11.942-17.554-13.371 12.029-20.088 17.157-33.137 25.303-27.924 17.431-67.812 25.262-104.869 20.589-60.447-7.622-115.007-53.385-132.528-111.156-2.417-7.97-2.875-9.667-2.689-9.967.109-.177.143-.307.075-.289-.068.018-2.281.623-4.918 1.344m122.078 3.618c.745.769 1.445 1.398 1.555 1.398.11 0-.41-.629-1.156-1.398-.745-.77-1.445-1.399-1.555-1.399-.11 0 .41.629 1.156 1.399"/>
    <path fill="#fbfbfb" d="M114.685 46.204c-26.14 3.295-51.158 24.933-55.918 48.364-8.064 39.69 41.414 49.935 74.716 15.472 28.806-29.812 17.441-68.405-18.798-63.836m125.275 89.315c-33.974 4.292-47.965 46.033-23.241 69.337 25.556 24.088 67.012 7.253 68.092-27.652.779-25.207-20.289-44.787-44.851-41.685m14.225 9.908c29.18 9.375 29.531 50.602.513 60.36-22.454 7.552-45.016-11.629-41.343-35.148 2.961-18.958 22.583-31.074 40.83-25.212m-13.825 2.046c-17.493 2.73-28.595 21.227-22.587 37.634 7.477 20.417 32.866 25.655 47.735 9.849 18.302-19.455 1.274-51.605-25.148-47.483m-64.136 54.772c-15.69.963-32.213 2.546-41.194 3.947-19.375 3.022-30.024 5.092-44.521 8.651-10.91 2.679-10.021 2.088-8.986 5.975 18.198 68.351 80.885 117.084 152.72 118.726 24.925.57 47.032-3.859 70.124-14.049 12.308-5.43 26.611-14.266 36.492-22.544 14.969-12.539 15.59-13.281 21.968-26.228 6.056-12.294 15.546-39.542 14.229-40.859-.824-.824-26.454-9.992-38.594-13.805-12.522-3.933-34.37-9.592-38.962-10.093l-1.998-.218-1.765 2.651c-26.315 39.519-88.086 34.946-110.169-8.156-1.854-3.619-2.432-4.434-3.113-4.387-.46.032-3.264.207-6.231.389"/>
    <path fill="#b47875" d="M57.252 102.697c0 .989.078 1.394.173.899.095-.494.095-1.303 0-1.798-.095-.494-.173-.09-.173.899m7.683 19.98c.859.879 1.651 1.599 1.761 1.599.11 0-.503-.72-1.361-1.599-.859-.879-1.651-1.598-1.761-1.598-.11 0 .503.719 1.361 1.598"/>
    <path fill="#7c7c7c" d="M75.3 65.235l-1.174 1.298 1.299-1.173c1.21-1.094 1.482-1.424 1.173-1.424-.069 0-.653.584-1.298 1.299m-5.195 5.594l-1.174 1.299 1.299-1.174c1.21-1.094 1.482-1.424 1.173-1.424-.068 0-.653.585-1.298 1.299m171.958 73.709c.497.096 1.216.092 1.598-.008.382-.1-.025-.178-.904-.173-.879.004-1.191.086-.694.181m3.791-.007c.385.101 1.014.101 1.399 0 .384-.1.07-.183-.7-.183-.769 0-1.083.083-.699.183m-30.694 2.622l-1.174 1.299 1.299-1.174c.714-.646 1.298-1.23 1.298-1.299 0-.309-.329-.037-1.423 1.174m6.996 6.593l-1.377 1.499 1.499-1.377c1.394-1.282 1.682-1.62 1.377-1.62-.067 0-.741.674-1.499 1.498m42.779 1.499c1.194 1.209 2.26 2.198 2.37 2.198.11 0-.777-.989-1.97-2.198-1.194-1.209-2.261-2.198-2.371-2.198-.11 0 .777.989 1.971 2.198m20.531 20.579c0 2.528.065 3.562.144 2.298.079-1.264.079-3.332 0-4.596-.079-1.263-.144-.229-.144 2.298m-9.649-2.397c0 .769.082 1.083.183.699.1-.385.1-1.014 0-1.399-.101-.384-.183-.07-.183.7m-60.332 2.197c.005.879.087 1.192.182.695.096-.497.092-1.216-.008-1.598-.1-.382-.178.024-.174.903m60.332 2.198c0 .769.082 1.084.183.699.1-.384.1-1.014 0-1.398-.101-.385-.183-.07-.183.699m-52.041 18.182c.746.769 1.446 1.399 1.556 1.399.109 0-.411-.63-1.156-1.399-.746-.769-1.446-1.399-1.556-1.399-.109 0 .411.63 1.156 1.399m-1.398 1.798c1.305 1.319 2.462 2.398 2.572 2.398.11 0-.868-1.079-2.173-2.398-1.305-1.318-2.462-2.397-2.572-2.397-.11 0 .868 1.079 2.173 2.397m44.33.1l-1.174 1.299 1.299-1.174c.714-.645 1.299-1.23 1.299-1.299 0-.308-.33-.036-1.424 1.174m-86.888 3.723c1.343.3 4.307.353 4.134.073-.102-.165-1.208-.279-2.459-.253-1.251.025-2.004.107-1.675.18m35.964 3.17c1.416 1.429 2.664 2.598 2.774 2.598.11 0-.958-1.169-2.374-2.598-1.416-1.428-2.664-2.597-2.774-2.597-.11 0 .958 1.169 2.374 2.597m-55.245-1.916c.495.096 1.304.096 1.799 0 .494-.095.09-.173-.899-.173s-1.394.078-.9.173m-84.124 15.193c-2.038.563-3.63 1.1-3.538 1.192.228.228 6.748-1.529 7.223-1.947.471-.414.729-.467-3.685.755m211.888 4.206l-3.588 3.696 3.697-3.588c2.033-1.973 3.696-3.637 3.696-3.696 0-.29-.472.155-3.805 3.588m-221.77-1.299c-.503.216-.577.343-.199.343.329 0 .959-.154 1.398-.343.504-.216.578-.343.2-.343-.33 0-.959.154-1.399.343m-3.996 1.199c-1.098.405-1.728.737-1.398.737.33 0 1.498-.332 2.597-.737 1.099-.406 1.729-.737 1.399-.737-.33 0-1.499.331-2.598.737m-5.794 1.798c-.769.296-1.129.539-.799.539.33 0 1.229-.243 1.998-.539.769-.296 1.129-.539.799-.539-.329 0-1.229.243-1.998.539m-5.994 1.998c-1.428.515-2.407.951-2.175.968.534.039 5.372-1.585 5.372-1.804 0-.269-.479-.144-3.197.836m-8.716 2.87c-1.607.555-2.851 1.08-2.765 1.167.17.169 5.884-1.703 6.218-2.037.368-.368-.501-.149-3.453.87m-5.594 1.998c-.948.336-1.653.681-1.567.767.183.182 3.889-1.035 3.889-1.277 0-.25-.454-.15-2.322.51m-5.386 1.998c-1.492.566-2.643 1.098-2.558 1.182.151.152 5.515-1.766 5.837-2.088.368-.366-.698-.071-3.279.906m-4.879 1.939c-.999.482-1.033.537-.2.334 1.132-.277 2.405-.926 1.798-.917-.22.003-.939.266-1.598.583m350.509.455c.253.182.551.78.663 1.329.175.861.195.837.14-.169-.036-.658-.325-1.238-.663-1.329-.401-.107-.447-.051-.14.169m-353.87 2.047c-.054.773 1.285 5.913 1.424 5.464.066-.213-.22-1.646-.634-3.185-.415-1.538-.77-2.564-.79-2.279m218.062 3.974c1.382.079 3.54.078 4.795-.001s.124-.143-2.513-.142c-2.638 0-3.664.065-2.282.143m-216.044 4.1c0 .329.155.959.344 1.398.216.504.343.578.343.2 0-.33-.154-.959-.343-1.399-.217-.503-.344-.577-.344-.199m1.605 5.394c-.001.22.241 1.029.537 1.798.296.77.544 1.129.551.8.007-.33-.235-1.139-.537-1.799-.301-.659-.549-1.019-.551-.799m1.136 3.567c0 .573 2.11 6.245 2.265 6.09.086-.086-.32-1.484-.902-3.108-1.029-2.873-1.363-3.604-1.363-2.982m2.398 6.752c0 .503 2.098 5.499 2.247 5.35.082-.082-.318-1.304-.889-2.714-1.011-2.499-1.358-3.171-1.358-2.636m3.634 8.862c0 .22.523 1.389 1.161 2.597.639 1.209 1.161 2.018 1.161 1.799 0-.22-.522-1.389-1.161-2.598-.638-1.209-1.161-2.018-1.161-1.798m2.36 5.14c0 .433 2.385 5.05 2.609 5.05.11 0-.364-1.124-1.052-2.498-1.305-2.603-1.557-3.016-1.557-2.552m2.797 5.599c0 .467 5.599 10.24 5.867 10.24.107 0-.293-.854-.89-1.898-.598-1.044-1.886-3.382-2.864-5.195-1.553-2.878-2.113-3.712-2.113-3.147m313.802 14.336c-2.818 4.343-8.415 12.218-10.579 14.885-.825 1.017-.959 1.308-.369.799 1.813-1.562 14.538-19.78 13.815-19.78-.115 0-1.405 1.843-2.867 4.096m-306.39-1.499c.806 1.319 1.648 2.578 1.872 2.798.697.686-1.442-2.949-2.414-4.102-.507-.601-.263-.014.542 1.304m2.434 3.897c3.862 6.376 13.549 18.177 21.858 26.627 6.04 6.141 17.847 16.675 17.847 15.922 0-.112-2.023-1.884-4.496-3.938-11.71-9.726-25.355-24.68-33.409-36.613-.927-1.374-1.779-2.498-1.894-2.498-.115 0-.072.225.094.5m289.23 17.582l-1.174 1.299 1.299-1.174c.714-.645 1.299-1.23 1.299-1.299 0-.308-.33-.037-1.424 1.174m-7.367 7.805c-3.407 3.46-7.813 7.8-9.791 9.643-2.583 2.406-2.864 2.743-.999 1.195 4.52-3.752 17.936-17.177 17.126-17.137-.079.003-2.93 2.838-6.336 6.299m-17.783 16.317c-1.729 1.583-1.778 1.664-.361.607 1.49-1.112 2.877-2.463 2.508-2.443-.082.004-1.048.831-2.147 1.836m-222.977 1.94c1.74 1.526 3.676 2.878 3.115 2.175-.265-.332-1.343-1.193-2.397-1.914-1.427-.977-1.61-1.043-.718-.261m218.981 1.043c-2.37 1.792-2.689 2.298-.466.739 1.679-1.177 2.593-1.995 2.188-1.959-.068.006-.843.555-1.722 1.22m-215.185 1.717c0 1.277 28.914 18.271 31.005 18.223.2-.005-2.873-1.682-6.829-3.727-7.753-4.007-14.602-8.069-20.479-12.143-2.033-1.41-3.697-2.469-3.697-2.353m208.392 3.104c-4.677 3.242-5.818 4.083-4.995 3.685 1.179-.571 8.735-5.725 8.984-6.129.355-.574.448-.631-3.989 2.444m-9.599 6.134c-1.973 1.207-3.43 2.196-3.238 2.197.385.003 7.043-4.012 7.043-4.247 0-.265-.189-.163-3.805 2.05m-9.885 5.296c-3.244 1.663-5.824 3.097-5.734 3.188.19.19 11.018-5.311 11.601-5.894.6-.6.426-.52-5.867 2.706m-157.339 3.826c0 .273 8.821 3.97 9.014 3.778.086-.086-1.764-.956-4.11-1.932-2.347-.976-4.41-1.835-4.585-1.908-.176-.074-.319-.046-.319.062m148.052.695c-.44.203-1.788.823-2.997 1.378-1.209.554-1.764.893-1.233.754 1.244-.328 5.954-2.496 5.429-2.5-.22-.001-.76.164-1.199.368m-138.062 3.504c.33.204 1.049.491 1.598.638.695.185.817.154.4-.103-.33-.204-1.049-.491-1.598-.638-.695-.186-.817-.154-.4.103m124.358 1.768c-2.483.877-4.443 1.664-4.357 1.751.156.156 9.518-2.972 9.836-3.287.425-.421-1.331.072-5.479 1.536m-120.562-.347c.659.3 1.648.656 2.198.791.802.197.763.137-.2-.301-.659-.3-1.648-.656-2.198-.791-.802-.197-.763-.138.2.301m5.794 2.043c.77.296 1.669.539 1.998.539.33 0-.03-.243-.799-.539-.769-.296-1.668-.538-1.998-.538-.33 0 .03.242.799.538m106.357 1.009c-3.07.905-3.869 1.25-2.261.974 1.653-.284 6.133-1.709 5.395-1.716-.33-.003-1.74.33-3.134.742m-102.346.168c.777.286 2.036.628 2.797.761.761.132.305-.113-1.013-.544-2.665-.871-3.999-1.033-1.784-.217m4.98 1.367c.44.192 1.429.464 2.198.603.96.174 1.148.144.6-.096-.44-.192-1.429-.464-2.198-.603-.96-.174-1.148-.144-.6.096m91.109.268c-1.576.546-1.578.55-.2.317 1.631-.275 3.297-.883 2.398-.875-.33.003-1.319.254-2.198.558m-6.993 1.584c-.989.286-1.528.535-1.199.552.33.018 1.499-.218 2.598-.524 1.099-.306 1.638-.555 1.199-.553-.44.002-1.609.238-2.598.525m-71.928.999c.55.176 1.449.316 1.998.312.898-.006.877-.038-.2-.312-1.69-.43-3.141-.43-1.798 0m68.032-.124c.385.1 1.014.1 1.399 0 .384-.101.07-.183-.7-.183-.769 0-1.083.082-.699.183m-3.496.523c-1.077.274-1.098.306-.2.313.549.004 1.448-.137 1.998-.313 1.343-.43-.108-.43-1.798 0m-60.14.412c.769.181 2.477.422 3.796.533 2.343.199 2.329.191-.599-.345-3.242-.594-5.476-.725-3.197-.188m55.344.388c-1.661.422-.026.441 1.998.023 1.344-.278 1.408-.331.4-.33-.659.001-1.738.139-2.398.307m-43.851 1.081c.497.096 1.216.092 1.598-.008.382-.1-.024-.178-.903-.173-.88.004-1.192.086-.695.181m34.966.005c.607.091 1.506.089 1.998-.006.491-.095-.006-.17-1.105-.167-1.098.003-1.501.081-.893.173m-31.374.401c.714.089 1.883.089 2.597 0 .714-.088.13-.161-1.299-.161-1.428 0-2.013.073-1.298.161m26.973-.002c.604.091 1.593.091 2.198 0 .604-.092.109-.167-1.099-.167-1.209 0-1.704.075-1.099.167m-16.983.412c2.912.068 7.677.068 10.589 0 2.912-.069.53-.124-5.295-.124-5.824 0-8.206.055-5.294.124"/>
    <path fill="#b1afaf" d="M74.91 66.034l-1.983 2.098 2.098-1.983c1.949-1.843 2.281-2.213 1.983-2.213-.063 0-1.007.944-2.098 2.098m129 109.59c.003 1.099.081 1.501.173.894.092-.607.089-1.507-.006-1.998-.094-.492-.17.005-.167 1.104m18.268 22.378c.745.769 1.445 1.399 1.555 1.399.11 0-.41-.63-1.156-1.399-.745-.769-1.445-1.399-1.555-1.399-.11 0 .41.63 1.156 1.399m-46.254 4.082c.604.092 1.593.092 2.198 0 .604-.091.11-.166-1.099-.166s-1.703.075-1.099.166m-95.791 16.342c.537 2.208 1.364 4.378 1.125 2.953-.128-.77-.48-1.938-.781-2.598-.302-.659-.457-.819-.344-.355m207.979 4.351c-1.637 1.649-2.887 2.997-2.777 2.997.11 0 1.539-1.348 3.176-2.997 1.638-1.648 2.888-2.997 2.778-2.997-.11 0-1.54 1.349-3.177 2.997m-89.111 1.124c0 .069.584.653 1.299 1.299l1.298 1.174-1.173-1.299c-1.094-1.211-1.424-1.482-1.424-1.174m-115.836 4.67c-.007.33.235 1.139.537 1.799.707 1.543.717.825.014-.999-.296-.77-.544-1.129-.551-.8m1.151 3.308c0 .515 2.109 5.905 2.254 5.76.085-.085-.313-1.395-.884-2.912-.977-2.596-1.37-3.414-1.37-2.848m2.649 7.082c.344 1.344 5.767 13.155 6.149 13.391.239.148-3.413-8.1-5.93-13.391l-.475-.999.256.999m8.34 17.582c.557 1.099 1.102 1.998 1.212 1.998.11 0-.256-.899-.813-1.998-.557-1.098-1.102-1.998-1.212-1.998-.11 0 .256.9.813 1.998m2.474 4.407c.617 1.105 1.546 2.498 2.065 3.097.861.994.887 1.001.309.089-.348-.55-1.19-1.943-1.871-3.097-1.58-2.678-1.989-2.751-.503-.089m3.497 5.484c.328.604.976 1.548 1.439 2.097.894 1.059.742.722-.763-1.698-1.08-1.736-1.555-2.017-.676-.399m5.808 8.479c.465.653 1.049 1.313 1.299 1.467.249.154-.05-.38-.666-1.187-1.335-1.751-1.839-1.974-.633-.28m2.802 3.603c.694.876 1.47 1.722 1.725 1.879.255.158-.229-.559-1.076-1.592-.847-1.034-1.624-1.88-1.726-1.88-.101 0 .383.717 1.077 1.593m4.002 4.803c1.143 1.319 2.285 2.525 2.537 2.678.252.154-.598-.926-1.888-2.399-1.291-1.473-2.433-2.679-2.537-2.679-.105 0 .744 1.08 1.888 2.4m9.372 9.8c3.526 3.523 7.579 7.363 9.008 8.535l2.597 2.129-2.797-2.524c-1.539-1.389-5.592-5.229-9.008-8.535l-6.21-6.011 6.41 6.406m227.389 1.821c-5.205 4.725-14.846 12.592-18.781 15.326-2.792 1.94-4.183 3.059-2.997 2.411 4.524-2.471 28.323-22.169 26.274-21.747-.055.011-2.078 1.816-4.496 4.01m-215.584 8.948c0 .541 10.382 8.084 15.884 11.539 3.547 2.228 1.503.596-2.797-2.233-2.473-1.627-6.429-4.427-8.791-6.224-2.363-1.796-4.296-3.183-4.296-3.082m189.467 11.207c-3.453 2.214-4.591 3.08-2.854 2.175 1.645-.858 6.394-3.963 6.394-4.18 0-.277.187-.383-3.54 2.005m-170.086 2.399c.439.357 1.338.914 1.998 1.237 1.121.55 1.147.546.399-.061-.439-.357-1.339-.914-1.998-1.237-1.121-.55-1.147-.546-.399.061m159.64 3.618c-3.407 1.847-6.034 3.359-5.838 3.36.544.005 11.77-5.967 12.041-6.405.316-.512.785-.742-6.203 3.045m-155.445-1.297c0 .267 5.259 3.132 5.431 2.959.078-.077-1.113-.818-2.645-1.645-1.532-.828-2.786-1.419-2.786-1.314m8.898 4.688c3.476 1.778 12.726 5.655 12.952 5.429.08-.08-1.971-1.007-4.558-2.06-2.587-1.053-6.094-2.607-7.792-3.455-1.699-.847-3.227-1.531-3.397-1.52-.17.011 1.088.734 2.795 1.606m136.957 1.371c-.99.53-1.619.963-1.399.963.22 0 1.209-.433 2.198-.963.989-.529 1.618-.963 1.398-.963-.219 0-1.208.434-2.197.963m-10.699 4.289c-1.818.672-3.236 1.291-3.151 1.375.179.179 7.056-2.262 7.056-2.505 0-.274-.485-.134-3.905 1.13m-7.883 2.738c-1.099.424-1.478.67-.843.547 1.256-.244 3.89-1.314 3.241-1.317-.22 0-1.299.346-2.398.77m-94.705.765c1.099.406 2.268.738 2.597.738.33 0-.3-.332-1.398-.738-1.099-.405-2.268-.737-2.598-.737-.329 0 .3.332 1.399.737m81.718 2.598c-.989.286-1.438.525-.999.529.44.005 1.519-.228 2.398-.518 2.069-.682.948-.691-1.399-.011m-69.131.599c.55.176 1.359.32 1.798.32.633 0 .592-.067-.199-.32-.55-.176-1.359-.32-1.799-.32-.632 0-.591.067.2.32m62.138.799c-1.069.272-1.091.305-.2.305.55 0 1.539-.137 2.198-.305 1.069-.272 1.091-.305.2-.305-.55 0-1.539.138-2.198.305m-54.445.675c.384.101 1.013.101 1.398 0 .385-.1.07-.182-.699-.182-.769 0-1.084.082-.699.182m5.994.8c.384.1 1.014.1 1.398 0 .385-.101.07-.183-.699-.183-.769 0-1.084.082-.699.183m39.16 0c.385.1 1.014.1 1.399 0 .385-.101.07-.183-.699-.183-.77 0-1.084.082-.7.183m-35.164.399c.384.101 1.014.101 1.398 0 .385-.1.07-.183-.699-.183-.769 0-1.084.083-.699.183m31.373.007c.497.096 1.216.092 1.598-.008.382-.1-.024-.178-.904-.173-.879.004-1.191.086-.694.181m-26.771.407c.718.089 1.797.087 2.398-.004.6-.091.013-.164-1.306-.162-1.319.002-1.81.077-1.092.166m21.372-.003c.604.091 1.593.091 2.197 0 .605-.092.11-.167-1.099-.167-1.208 0-1.703.075-1.098.167m-12.388.409c1.483.077 3.911.077 5.395 0 1.483-.077.269-.14-2.698-.14s-4.181.063-2.697.14"/>
    <path fill="#d0b8b7" d="M117.982 45.846c.824.086 2.173.086 2.997 0 .824-.087.15-.157-1.498-.157-1.649 0-2.323.07-1.499.157m-4.99.391c.497.095 1.216.092 1.598-.008.382-.1-.025-.179-.904-.174-.879.004-1.191.086-.694.182m22.473 3.093c0 .11.539.479 1.198.82.66.341 1.199.53 1.199.42 0-.11-.539-.479-1.199-.82-.659-.341-1.198-.53-1.198-.42m-44.856 4.445c-1.493.81-1.403 1.148.1.371.66-.341 1.199-.705 1.199-.81 0-.257-.043-.242-1.299.439m54.221 3.499c.615.807 1.2 1.467 1.299 1.467.277 0-1.453-2.337-1.964-2.653-.25-.155.05.379.665 1.186m5.113 21.048c0 .769.082 1.084.183.699.1-.385.1-1.014 0-1.399-.101-.384-.183-.07-.183.7m-87.625 4.834c-.459.9-.767 1.705-.683 1.789.084.084.544-.653 1.022-1.637 1.089-2.242.794-2.374-.339-.152m-4.624 19.541c0 2.528.064 3.562.144 2.298.079-1.264.079-3.332 0-4.595-.08-1.264-.144-.23-.144 2.297m82.166 0c-.469.66-.764 1.199-.654 1.199.11 0 .584-.539 1.054-1.199.469-.659.763-1.198.654-1.198-.11 0-.584.539-1.054 1.198m-4.017 5.095l-1.377 1.499 1.498-1.377c.824-.758 1.499-1.432 1.499-1.499 0-.305-.339-.018-1.62 1.377m-6.394 6.394l-1.377 1.498 1.498-1.377c.825-.757 1.499-1.431 1.499-1.498 0-.305-.338-.018-1.62 1.377m-58.72 12.684c0 .271 3.246 1.886 3.427 1.705.084-.084-.653-.544-1.637-1.022s-1.79-.785-1.79-.683m32.967 1.801c-.503.217-.577.344-.199.344.329 0 .959-.155 1.398-.344.504-.216.578-.343.2-.343-.33 0-.959.154-1.399.343m-28.571.333c.33.203 1.049.49 1.598.637.695.186.816.154.4-.103-.33-.204-1.049-.491-1.599-.638-.694-.185-.816-.154-.399.104m12.295 2.355c.718.088 1.797.087 2.397-.005.601-.091.013-.163-1.306-.161-1.318.002-1.809.077-1.091.166"/>
    <path fill="#cdc7c7" d="M71.703 69.63l-1.174 1.299 1.299-1.174c1.211-1.094 1.483-1.423 1.174-1.423-.069 0-.653.584-1.299 1.298m60.964 41.259c-.97.989-1.675 1.798-1.565 1.798.11 0 .994-.809 1.965-1.798.971-.989 1.675-1.798 1.565-1.798-.11 0-.994.809-1.965 1.798m107.992 24.451c.385.101 1.014.101 1.399 0 .385-.1.07-.182-.699-.182-.77 0-1.084.082-.7.182m6.794 0c.384.101 1.014.101 1.398 0 .385-.1.07-.182-.699-.182-.769 0-1.084.082-.699.182m-4.596 8.809c.934.084 2.463.084 3.397 0 .934-.084.17-.153-1.699-.153-1.868 0-2.632.069-1.698.153m31.269 3.903c.745.769 1.445 1.399 1.555 1.399.11 0-.41-.63-1.156-1.399-.745-.769-1.445-1.399-1.555-1.399-.11 0 .41.63 1.156 1.399m-51.763 5.095l-1.983 2.098 2.098-1.983c1.949-1.843 2.281-2.213 1.983-2.213-.064 0-1.008.944-2.098 2.098m3.186 1.199l-1.173 1.298 1.298-1.173c.715-.646 1.299-1.23 1.299-1.299 0-.309-.33-.037-1.424 1.174m39.186 1.099c.859.879 1.651 1.598 1.761 1.598.11 0-.503-.719-1.361-1.598-.859-.88-1.651-1.599-1.761-1.599-.11 0 .503.719 1.361 1.599m20.33 20.179c0 2.418.066 3.355.146 2.084.079-1.272.079-3.25-.002-4.396-.08-1.146-.145-.105-.144 2.312m-69.18 0c.004.879.086 1.192.182.695.095-.497.092-1.216-.008-1.598-.1-.382-.178.024-.174.903m60.332.2c0 .769.082 1.084.182.699.101-.384.101-1.014 0-1.398-.1-.385-.182-.07-.182.699m-11.695 20.28l-2.184 2.298 2.297-2.185c1.264-1.201 2.298-2.235 2.298-2.297 0-.297-.382.049-2.411 2.184m2.411 1.898c-.971.989-1.675 1.798-1.565 1.798.11 0 .994-.809 1.965-1.798.97-.989 1.675-1.798 1.565-1.798-.11 0-.994.809-1.965 1.798m-87.413 4.072c.385.1 1.014.1 1.399 0 .385-.101.07-.183-.699-.183-.769 0-1.084.082-.7.183m-7.986.411c.607.091 1.506.089 1.998-.006.491-.095-.006-.17-1.104-.167-1.099.003-1.501.081-.894.173m44.05 1.711c1.083 1.099 2.058 1.998 2.168 1.998.11 0-.686-.899-1.768-1.998-1.082-1.099-2.058-1.998-2.168-1.998-.11 0 .686.899 1.768 1.998m-50.249-1.317c.494.096 1.303.096 1.798 0 .494-.095.09-.173-.899-.173s-1.394.078-.899.173m-4.796.4c.495.095 1.304.095 1.799 0 .494-.095.09-.173-.899-.173s-1.394.078-.9.173m83.125 1.206c.718.089 1.797.088 2.397-.004.601-.091.013-.164-1.306-.161-1.318.002-1.81.076-1.091.165m0 11.988c.718.089 1.797.088 2.397-.004.601-.091.013-.164-1.306-.161-1.318.002-1.81.076-1.091.165m-163.153 1.01c-.1.274.089 1.308.421 2.297.483 1.439.551 1.519.339.4-.145-.769-.284-1.803-.308-2.298-.05-1.013-.184-1.132-.452-.399m1.463 5.894c0 .329.155.959.344 1.398.216.504.343.578.343.2 0-.33-.154-.959-.343-1.399-.217-.503-.344-.577-.344-.199m.773 2.619c-.042.599 1.625 5.449 1.81 5.265.084-.084-.282-1.398-.814-2.92-.531-1.522-.98-2.577-.996-2.345m3.767 10.967c1.001 3.339 9.796 21.578 10.405 21.578.094 0-1.319-2.922-3.14-6.493-1.821-3.571-4.175-8.561-5.23-11.089-1.886-4.515-2.627-5.97-2.035-3.996m154.361 4.692c1.382.078 3.54.078 4.795-.002 1.255-.079.124-.143-2.513-.142-2.638.001-3.664.066-2.282.144m-142.827 18.9c9.875 18.128 30.681 39.987 50.004 52.536 5.142 3.339 5.395 3.492 5.395 3.274 0-.091-1.754-1.305-3.897-2.697-18.716-12.163-35.001-28.364-47.16-46.914-5.217-7.96-5.599-8.505-4.342-6.199m253.8 32.816c-13.939 12.43-22.709 18.993-33.367 24.969-2.197 1.233-3.995 2.324-3.995 2.426 0 .578 11.034-6.07 16.983-10.232 6.901-4.829 25.637-20.669 24.124-20.397-.081.014-1.767 1.47-3.745 3.234m-198.002 23.233c0 .11.674.607 1.499 1.104 2.503 1.51 8.092 4.433 8.092 4.232 0-.104-1.484-.993-3.297-1.975-1.813-.982-3.971-2.185-4.795-2.673-.825-.488-1.499-.798-1.499-.688m157.842 5.47c-1.208.636-4.757 2.279-7.886 3.65-3.128 1.371-5.631 2.55-5.562 2.62.336.336 15.846-6.747 15.846-7.236 0-.308.09-.344-2.398.966m-147.765.224c.381.381 4.309 2.177 4.309 1.97 0-.211-2.011-1.263-3.486-1.824-.601-.229-.972-.295-.823-.146m4.743 2.315c.356.402 7.64 3.51 7.815 3.335.084-.084-1.423-.826-3.349-1.649-4.367-1.867-4.757-2.014-4.466-1.686m124.531 5.352c-2.148.78-3.837 1.486-3.754 1.569.167.168 6.901-2.139 7.86-2.692 1.142-.659-.219-.287-4.106 1.123m-113.776-.762c.329.204 1.049.491 1.598.638.694.186.816.154.4-.103-.33-.204-1.049-.491-1.599-.638-.694-.186-.816-.154-.399.103m2.834 1.021c.31.331 7.177 2.652 7.73 2.613.234-.016-1.073-.548-2.903-1.181-4.399-1.523-5.109-1.734-4.827-1.432m98.967 3.561c-2.361.671-4.217 1.295-4.126 1.386.189.189 9.417-2.31 9.417-2.549 0-.279-.946-.071-5.291 1.163m-87.815.118c1.648.527 3.266.946 3.596.933.33-.014-.839-.458-2.597-.988-1.759-.529-3.377-.948-3.597-.932-.22.017.949.461 2.598.987m4.995 1.362c.439.189 1.158.338 1.598.331.642-.009.603-.074-.2-.331-1.366-.438-2.417-.438-1.398 0m69.93 1.598c-1.077.274-1.097.306-.2.313.549.004 1.448-.137 1.998-.313 1.343-.43-.108-.43-1.798 0m-59.341.62c1.429.289 3.586.62 4.795.737 1.261.121.494-.112-1.798-.548-2.198-.417-4.356-.749-4.795-.736-.44.012.369.259 1.798.547m51.748.588c-2.417.389-3.899.726-3.292.749 1.07.04 8.481-1.029 9.286-1.34.897-.346-1.859-.075-5.994.591m-42.757.809c1.099.171 2.717.301 3.596.289 1.392-.018 1.315-.06-.599-.325-1.209-.167-2.827-.297-3.596-.29-1.121.012-1.002.076.599.326m35.47.268c.607.092 1.507.089 1.998-.006.492-.094-.005-.17-1.104-.167-1.099.003-1.501.081-.894.173m-28.57.402c.719.089 1.797.087 2.398-.004.6-.091.013-.164-1.306-.161-1.319.002-1.81.076-1.092.165m23.976 0c.719.089 1.797.087 2.398-.004.6-.091.013-.164-1.306-.161-1.319.002-1.81.076-1.092.165m-14.97.409c2.374.071 6.151.07 8.391-.001 2.241-.071.298-.129-4.317-.129-4.615.001-6.449.059-4.074.13"/>
  </g>
</svg>
